<!-- <?xml version="1.0" standalone="no"?>
<!DOCTYPE svg PUBLIC "-//W3C//DTD SVG 20010904//EN"
 "http://www.w3.org/TR/2001/REC-SVG-20010904/DTD/svg10.dtd"> -->
<svg version="1.0" xmlns="http://www.w3.org/2000/svg" viewBox="0 0 640.000000 1280.000000"
 >
<g transform="translate(0.000000,1280.000000) scale(0.100000,-0.100000)"
fill="#1A2A1F" stroke="none">
<path d="M3110 12778 c0 -40 32 -331 45 -419 47 -303 115 -466 238 -574 59
-52 169 -110 191 -102 26 10 49 114 49 217 -1 172 -59 295 -272 580 -114 152
-240 310 -246 310 -3 0 -5 -6 -5 -12z"/>
<path d="M4530 12704 c-189 -104 -408 -249 -513 -338 -185 -159 -277 -348
-277 -570 l0 -86 63 0 c126 0 249 51 358 149 98 87 223 290 403 650 102 204
138 281 128 281 -4 0 -77 -39 -162 -86z"/>
<path d="M3611 11684 c-110 -427 -241 -947 -241 -959 0 -8 -7 -15 -15 -15 -8
0 -15 -4 -15 -10 0 -5 5 -10 10 -10 6 0 10 -16 10 -35 0 -32 -3 -35 -29 -35
-24 0 -28 -3 -24 -20 3 -11 13 -20 23 -20 18 0 20 -30 36 -890 l7 -336 -43 4
c-54 5 -52 -18 3 -31 49 -12 50 -37 1 -37 -31 0 -35 -3 -32 -22 2 -18 9 -23
31 -21 22 1 27 -2 27 -20 0 -18 -143 -1172 -166 -1337 -6 -45 -7 -46 -40 -42
-28 4 -33 1 -28 -12 3 -9 17 -16 30 -16 13 0 24 -4 24 -10 0 -5 -14 -10 -31
-10 -24 0 -30 -3 -25 -16 3 -9 6 -18 6 -20 0 -2 10 -4 23 -4 22 0 22 -1 19
-112 -3 -109 -62 -797 -84 -983 -6 -49 -13 -202 -17 -340 -5 -212 -7 -238 -14
-170 -5 44 -10 86 -13 94 -12 36 -10 -7 6 -154 10 -88 23 -218 29 -290 7 -71
21 -209 31 -305 11 -96 28 -260 39 -365 11 -104 23 -211 26 -237 l6 -48 -41 0
c-52 0 -51 -14 3 -26 41 -9 42 -10 45 -52 l3 -44 -38 4 c-32 3 -38 0 -41 -18
-3 -19 3 -23 42 -28 39 -6 45 -10 48 -34 2 -15 0 -36 -4 -47 -4 -11 -26 -144
-48 -295 -23 -151 -65 -423 -95 -605 -30 -181 -68 -418 -85 -525 -17 -107 -33
-210 -36 -228 -4 -26 -9 -32 -29 -32 -18 0 -25 -5 -25 -20 0 -15 7 -20 25 -20
16 0 25 -6 25 -16 0 -13 -8 -15 -35 -12 -20 2 -35 0 -35 -7 0 -5 -3 -20 -6
-31 -5 -18 0 -22 30 -28 l36 -7 0 -207 c0 -256 -18 -1385 -26 -1659 l-6 -203
-33 0 c-21 0 -35 -6 -39 -16 -9 -24 -9 -24 34 -24 30 0 40 -4 40 -16 0 -12 -8
-14 -45 -8 -43 6 -45 5 -45 -19 0 -23 5 -27 45 -33 l45 -6 -2 -252 c-2 -206 0
-259 13 -296 l16 -45 13 30 c7 19 15 125 20 290 5 143 9 261 9 262 1 2 20 0
44 -3 39 -6 44 -4 54 19 12 25 11 26 -43 32 -73 10 -74 33 -2 37 41 2 54 7 56
21 3 15 -5 17 -54 17 l-56 0 6 378 c4 207 11 616 16 907 8 414 14 556 27 648
l18 118 37 -6 c34 -6 39 -4 48 20 15 39 13 42 -30 49 -31 5 -40 11 -40 26 0
17 7 20 44 20 31 0 46 5 50 16 8 22 5 25 -43 31 -35 5 -40 8 -36 27 3 11 37
215 75 451 39 237 89 540 111 674 45 276 63 468 53 555 l-6 59 35 -7 c30 -6
38 -3 46 13 15 28 15 28 -33 35 -41 6 -44 9 -50 44 -9 58 -8 62 23 62 16 0 34
7 41 15 11 13 7 15 -28 15 -39 0 -41 2 -46 33 -13 76 -148 1348 -149 1402 -2
70 13 264 54 715 16 178 29 351 29 385 0 33 9 127 20 209 11 81 20 152 20 157
0 5 11 9 25 9 16 0 25 6 25 15 0 8 -9 15 -20 15 -11 0 -20 5 -20 10 0 6 9 10
20 10 11 0 20 5 20 10 0 6 -9 10 -21 10 -18 0 -20 4 -15 38 6 38 104 821 130
1042 9 69 18 173 22 233 l7 107 28 0 c24 0 29 4 29 25 0 21 -5 25 -30 25 -16
0 -30 5 -30 10 0 6 11 10 25 10 16 0 25 6 25 15 0 9 -9 15 -22 15 l-23 0 1
573 c0 492 2 578 16 612 8 22 21 40 29 40 7 0 15 8 17 18 2 10 -3 17 -11 17
-22 0 -8 50 17 60 18 7 19 9 5 15 -15 5 -7 43 62 313 89 347 102 440 83 610
-6 56 -13 105 -17 108 -3 3 -10 -11 -16 -32z m-204 -1581 c-1 -54 -3 -10 -3
97 0 107 2 151 3 98 2 -54 2 -142 0 -195z m10 -135 c-3 -7 -5 -2 -5 12 0 14 2
19 5 13 2 -7 2 -19 0 -25z"/>
<path d="M2350 11632 c0 -15 42 -160 92 -317 87 -275 193 -522 283 -660 110
-169 289 -284 482 -310 51 -7 52 -6 60 22 14 51 7 234 -11 303 -20 77 -72 191
-118 257 -44 65 -189 214 -323 333 -114 101 -452 380 -460 380 -3 0 -5 -3 -5
-8z"/>
<path d="M3676 11604 c-4 -14 -5 -28 -3 -31 3 -2 8 8 11 23 4 14 5 28 3 31 -3
2 -8 -8 -11 -23z"/>
<path d="M3662 11540 c0 -14 2 -19 5 -12 2 6 2 18 0 25 -3 6 -5 1 -5 -13z"/>
<path d="M4347 11405 c-283 -155 -503 -309 -620 -435 -69 -75 -135 -188 -161
-280 -22 -77 -37 -205 -29 -253 l6 -40 86 6 c201 11 352 123 504 373 109 179
377 704 359 704 -4 0 -69 -34 -145 -75z"/>
<path d="M4455 9749 c-478 -257 -798 -507 -914 -712 -81 -144 -121 -301 -121
-476 l0 -78 41 -6 c94 -12 249 28 362 94 187 110 317 292 583 814 120 235 227
455 221 455 -1 0 -79 -41 -172 -91z"/>
<path d="M2136 9598 c139 -514 300 -910 449 -1105 124 -163 323 -280 511 -299
l62 -7 8 44 c14 81 6 258 -15 344 -26 99 -94 239 -160 325 -63 84 -287 302
-466 455 -165 141 -401 335 -409 335 -2 0 7 -42 20 -92z"/>
<path d="M1835 8128 c7 -24 50 -158 95 -298 182 -566 318 -905 431 -1072 130
-191 322 -325 523 -364 73 -15 89 -15 96 -4 18 30 32 188 27 309 -12 293 -114
507 -373 781 -179 191 -401 385 -657 577 -169 127 -159 122 -142 71z"/>
<path d="M4014 7708 c-506 -465 -710 -694 -791 -889 -59 -140 -78 -322 -50
-459 l12 -55 49 2 c160 5 386 158 501 338 84 131 178 375 264 680 31 111 112
458 107 462 -1 1 -42 -34 -92 -79z"/>
<path d="M1865 6168 c13 -40 54 -167 91 -283 116 -365 231 -675 323 -870 146
-309 359 -496 630 -550 68 -14 85 -15 91 -4 37 58 37 386 2 521 -79 296 -290
562 -749 945 -125 104 -396 313 -407 313 -2 0 6 -33 19 -72z"/>
<path d="M4755 5834 c-828 -478 -1093 -682 -1243 -957 -41 -75 -86 -189 -102
-262 -17 -77 -31 -228 -24 -271 l6 -43 57 -7 c79 -10 234 10 343 46 175 56
335 167 465 323 149 179 340 494 504 832 104 214 211 455 201 455 -4 -1 -97
-53 -207 -116z"/>
<path d="M1325 3898 c2 -7 12 -42 24 -78 211 -685 417 -1252 543 -1499 137
-267 316 -454 539 -561 96 -46 195 -76 280 -86 55 -6 58 -5 63 17 3 13 11 44
16 69 20 84 23 336 7 446 -29 185 -107 386 -209 537 -194 287 -586 662 -1081
1033 -98 74 -180 134 -182 134 -3 0 -3 -6 0 -12z"/>
<path d="M4865 2662 c-363 -160 -437 -195 -715 -333 -420 -211 -564 -302 -714
-455 -77 -78 -175 -213 -221 -303 -63 -126 -115 -326 -115 -446 l0 -63 50 -11
c96 -21 239 -24 345 -8 422 66 725 329 1180 1027 157 241 414 680 397 680 -4
0 -97 -40 -207 -88z"/>
</g>
</svg>






