<?xml version="1.0" standalone="no"?>
<!DOCTYPE svg PUBLIC "-//W3C//DTD SVG 20010904//EN"
 "http://www.w3.org/TR/2001/REC-SVG-20010904/DTD/svg10.dtd">
<svg version="1.0" xmlns="http://www.w3.org/2000/svg"
 width="1044.000000pt" height="1280.000000pt" viewBox="0 0 1044.000000 1280.000000"
 preserveAspectRatio="xMidYMid meet">
<metadata>
Created by potrace 1.15, written by Peter Selinger 2001-2017
</metadata>
<g transform="translate(0.000000,1280.000000) scale(0.100000,-0.100000)"
fill="#000000" stroke="none">
<path d="M3850 12789 c-1234 -9 -2677 -36 -3170 -59 -113 -5 -311 -10 -440
-10 l-235 0 3 -6347 c2 -3491 4 -6348 5 -6349 1 -1 396 -7 877 -13 664 -9
1761 -9 4555 -1 2024 7 3975 15 4335 18 l655 7 -1 40 c-1 22 -7 227 -14 455
-10 307 -14 1214 -16 3475 -1 1810 -7 3417 -14 3935 -23 1623 -26 2455 -12
3350 12 735 11 1404 -1 1416 -8 8 -733 36 -1117 44 -223 4 -947 13 -1610 19
-663 6 -1455 15 -1760 21 -305 6 -681 9 -835 8 -154 -1 -696 -5 -1205 -9z
m1620 -247 c47 -4 84 -11 84 -17 -1 -5 -27 -23 -58 -40 -78 -42 -195 -141
-211 -179 -53 -126 -93 -249 -111 -340 -3 -16 -20 -44 -39 -63 -45 -45 -90
-45 -154 0 -25 19 -54 37 -63 40 -34 12 -22 45 54 147 l22 30 -19 117 c-10 65
-22 129 -27 143 -13 35 -45 67 -98 98 -43 26 -53 27 -218 32 -104 3 -172 9
-172 15 -1 6 14 13 32 16 44 8 870 9 978 1z m-3070 -29 c-43 -57 -120 -176
-120 -188 0 -16 -76 -102 -102 -116 -24 -13 -148 25 -148 46 0 20 82 123 157
197 72 71 103 85 191 87 l44 1 -22 -27z m3906 11 c34 -3 67 -10 75 -15 38 -26
-227 -191 -310 -193 -34 -1 -36 1 -42 39 -4 22 -16 67 -28 100 -32 89 -32 89
117 81 70 -3 154 -9 188 -12z m-497 -13 c21 -39 -21 -42 -94 -7 l-50 24 67 1
c56 1 69 -2 77 -18z m1856 4 c201 -5 280 -16 272 -38 -2 -7 -29 -31 -59 -54
-62 -48 -93 -106 -83 -154 9 -38 -1 -64 -28 -76 -31 -14 -58 -1 -92 43 -80
108 -131 164 -160 178 -21 11 -100 20 -237 30 -196 14 -265 27 -282 55 -21 33
-30 33 669 16z m-3944 -100 c151 -147 208 -168 333 -125 135 46 215 33 216
-36 0 -26 -30 -40 -113 -54 -110 -17 -224 -63 -286 -116 -58 -49 -150 -179
-136 -192 4 -4 34 -9 68 -12 78 -6 87 -27 27 -65 -48 -30 -120 -94 -120 -106
0 -4 23 -15 52 -24 37 -11 97 -15 215 -15 93 0 163 -4 163 -9 0 -5 -14 -23
-31 -40 -36 -36 -54 -38 -165 -15 -112 23 -147 16 -247 -49 -127 -83 -146
-126 -64 -148 23 -6 107 -15 187 -19 80 -5 147 -9 148 -9 2 -1 -12 -29 -31
-63 -19 -35 -42 -85 -52 -113 -24 -67 -49 -88 -145 -120 -44 -15 -93 -38 -109
-51 -40 -33 -124 -201 -119 -239 5 -45 40 -43 213 9 82 25 152 43 154 40 3 -3
9 -45 12 -94 11 -149 56 -219 191 -290 39 -21 69 -30 91 -28 28 3 34 9 45 43
16 48 9 131 -17 189 -10 23 -59 86 -110 140 -88 95 -114 137 -95 156 6 6 38
-13 79 -46 118 -94 207 -134 301 -134 85 0 82 58 -10 194 -75 110 -119 141
-243 167 -92 20 -113 31 -113 59 0 37 62 134 161 250 112 133 103 128 219 108
75 -13 64 -15 238 46 78 27 166 36 183 19 8 -8 2 -30 -20 -75 -42 -84 -71
-219 -52 -242 20 -24 87 -20 148 8 85 40 190 199 213 325 13 70 51 134 96 161
50 32 116 24 224 -25 97 -44 117 -46 358 -31 140 9 142 9 142 -12 0 -12 -11
-33 -24 -49 l-24 -28 -58 15 c-86 20 -127 16 -243 -24 -157 -54 -213 -82 -209
-103 6 -32 184 -84 310 -92 58 -3 110 -10 114 -14 15 -15 -29 -78 -108 -152
-43 -41 -86 -75 -97 -75 -11 0 -57 30 -103 66 l-83 67 -95 -6 c-108 -7 -236
-36 -275 -61 -23 -15 -24 -20 -13 -33 27 -34 134 -94 236 -133 171 -65 158
-57 136 -81 -34 -38 -50 -41 -147 -29 -162 19 -206 16 -265 -14 -115 -58 -262
-166 -262 -191 0 -36 198 -97 325 -99 100 -2 150 21 257 115 49 44 93 79 98
79 15 0 30 -37 30 -75 0 -20 15 -82 34 -138 19 -56 40 -123 46 -149 7 -26 18
-52 25 -58 19 -16 74 53 127 157 l43 86 0 126 c0 110 -3 132 -22 172 -13 25
-23 53 -23 62 0 16 106 137 120 137 4 0 11 -17 15 -37 13 -69 49 -128 135
-218 47 -49 107 -116 134 -148 101 -121 116 -108 116 104 0 270 -19 317 -177
435 -57 42 -73 60 -73 79 0 40 39 32 126 -25 75 -49 78 -50 153 -50 153 1 273
31 329 83 13 12 35 46 48 76 l24 53 117 -8 c162 -12 230 -10 307 11 37 10 69
16 72 12 3 -3 -12 -36 -33 -74 -21 -37 -56 -113 -77 -168 -20 -55 -60 -142
-87 -193 -28 -51 -47 -97 -44 -102 9 -14 102 -12 161 4 130 34 261 142 320
263 27 55 29 65 28 181 0 67 3 122 7 122 5 0 22 -22 40 -48 59 -91 157 -138
357 -172 189 -33 212 -26 173 47 -19 34 -108 156 -176 240 -35 43 -154 120
-240 156 -41 17 -88 46 -113 71 -76 73 -159 272 -104 251 43 -16 169 -47 305
-74 82 -17 159 -36 170 -44 12 -8 41 -50 64 -93 69 -130 112 -159 265 -184 64
-10 87 -10 149 3 41 9 108 23 149 32 78 16 87 23 133 94 34 53 54 61 77 31 30
-38 59 -105 78 -176 15 -56 15 -65 2 -78 -13 -13 -24 -11 -90 15 -108 44 -178
48 -265 16 -39 -14 -123 -44 -188 -68 -66 -23 -121 -49 -124 -57 -3 -7 3 -22
13 -32 31 -31 326 -200 369 -211 49 -14 178 2 272 33 35 12 66 18 69 15 18
-18 23 -103 9 -178 -13 -78 -69 -209 -92 -216 -6 -2 -23 29 -37 69 -33 89 -59
117 -156 171 -41 22 -88 54 -104 71 -37 40 -84 39 -176 -3 -38 -18 -99 -41
-136 -51 -36 -11 -73 -25 -81 -31 -8 -7 -31 -44 -50 -83 -19 -38 -46 -87 -59
-108 -14 -22 -24 -53 -24 -75 0 -37 17 -228 27 -292 7 -54 47 -85 133 -106 41
-10 84 -26 95 -36 11 -9 32 -21 48 -24 59 -15 55 -60 -8 -104 -48 -32 -99 -44
-205 -44 -146 -2 -164 18 -114 123 34 72 33 108 -6 209 -40 104 -67 132 -155
165 -38 14 -90 39 -115 56 -56 37 -84 38 -192 1 -130 -44 -173 -78 -194 -151
-3 -14 -24 -44 -45 -67 -44 -48 -48 -75 -20 -131 19 -38 63 -171 76 -229 5
-27 3 -33 -9 -33 -28 0 -92 47 -132 96 -80 98 -179 190 -234 217 -69 34 -174
57 -261 57 -72 0 -94 -12 -78 -42 18 -34 139 -162 231 -246 107 -95 151 -116
288 -131 94 -10 134 -29 124 -56 -3 -7 -17 -16 -31 -20 -40 -10 -102 -56 -170
-128 -122 -127 -57 -161 164 -86 82 28 93 35 168 110 51 50 93 83 115 89 52
15 266 25 273 13 4 -6 -11 -38 -33 -71 -21 -34 -46 -82 -55 -109 -23 -66 -50
-262 -42 -296 7 -27 8 -27 40 -11 39 20 266 247 329 329 25 33 57 83 71 110
34 67 73 105 108 105 40 0 58 -32 80 -141 10 -49 23 -99 29 -110 16 -29 50
-39 112 -32 35 3 84 -1 136 -12 l81 -18 58 50 c32 28 82 67 111 87 65 47 72
60 60 105 -18 67 -103 215 -157 273 -29 32 -52 60 -50 62 2 1 22 13 43 26 22
13 66 48 99 77 33 29 63 53 67 53 41 0 124 -135 159 -260 12 -41 29 -99 37
-129 11 -37 27 -65 52 -88 52 -48 154 -104 230 -125 36 -9 67 -20 71 -23 13
-14 -22 -44 -116 -100 -55 -33 -148 -93 -207 -132 -59 -40 -113 -73 -121 -73
-8 0 -45 23 -82 52 -99 75 -140 91 -198 78 -76 -17 -259 -78 -280 -94 -20 -14
-19 -15 9 -45 40 -42 182 -113 288 -146 85 -25 111 -44 101 -73 -10 -28 -66
-43 -192 -52 -193 -12 -218 -30 -314 -217 -31 -60 -67 -121 -81 -136 -26 -28
-32 -51 -20 -81 10 -27 90 -19 211 19 119 38 196 82 249 143 30 34 33 35 40
17 4 -11 29 -75 56 -143 26 -67 48 -127 48 -132 0 -6 -13 -10 -29 -10 -15 0
-42 -10 -59 -22 -74 -55 -160 -129 -166 -144 -10 -25 -7 -98 5 -133 10 -29 8
-34 -25 -71 -20 -22 -36 -45 -36 -51 0 -21 24 -55 81 -116 37 -40 62 -77 69
-102 15 -57 31 -65 136 -72 81 -5 99 -10 134 -34 51 -36 90 -30 174 24 33 22
87 49 119 61 40 15 65 32 84 58 16 20 32 40 37 44 27 19 100 -68 111 -131 4
-24 0 -64 -10 -106 -17 -66 -17 -68 3 -95 28 -38 37 -74 20 -87 -7 -6 -53 -13
-102 -16 -105 -7 -151 -27 -268 -115 -109 -82 -171 -139 -166 -154 6 -17 42
-26 116 -27 67 -1 118 -17 141 -45 17 -20 4 -37 -79 -101 -112 -86 -151 -93
-216 -40 -47 38 -78 44 -106 18 -24 -21 -23 -44 3 -77 59 -75 189 -107 270
-66 61 31 157 101 199 145 48 50 77 64 157 71 58 5 71 4 92 -13 l24 -20 -18
-74 c-26 -105 -62 -188 -139 -323 -81 -141 -126 -250 -133 -322 -5 -44 -1 -62
21 -108 44 -91 157 -176 231 -176 25 0 44 -8 60 -25 23 -22 25 -32 25 -108 0
-96 17 -162 67 -262 45 -89 112 -195 124 -195 16 0 22 51 11 106 -7 30 -30
101 -53 157 -48 120 -48 145 1 284 51 143 57 176 37 207 -22 33 -40 33 -132
-4 -133 -53 -228 -32 -250 54 -20 83 34 248 130 398 49 75 114 229 135 319 7
30 14 60 16 67 7 23 38 11 161 -62 185 -111 263 -130 280 -68 11 38 7 135 -7
177 -14 43 -146 169 -217 208 -29 15 -87 36 -130 47 -50 13 -84 28 -96 42 -27
32 -8 42 55 28 80 -17 349 -26 376 -11 41 22 20 53 -69 105 -25 14 -92 65
-148 114 -126 108 -152 122 -216 122 -28 0 -59 6 -68 13 -9 6 -32 51 -51 99
-40 102 -43 98 78 98 145 0 289 36 384 97 46 29 53 37 50 61 -3 24 -12 30 -96
59 -140 49 -239 66 -348 61 -84 -3 -100 -8 -164 -41 -39 -20 -75 -37 -80 -37
-5 0 -16 22 -24 48 -17 61 -56 138 -112 224 l-42 66 -80 -5 c-102 -7 -145 7
-178 57 -41 61 -61 150 -35 150 4 0 40 -25 80 -55 107 -81 146 -90 376 -90
194 1 260 10 286 41 18 22 -10 46 -156 134 -282 171 -320 190 -425 205 -99 15
-129 44 -95 89 18 23 65 56 82 56 6 0 58 -37 115 -83 56 -45 130 -94 163 -109
77 -34 199 -56 368 -64 135 -7 177 0 177 30 0 7 -36 52 -80 100 -44 49 -80 92
-80 96 0 13 39 18 190 26 80 4 156 11 170 16 14 5 48 27 77 49 45 36 57 40 98
37 l46 -3 0 -335 c-1 -184 -6 -1325 -12 -2535 -10 -1727 -9 -2433 0 -3285 10
-812 10 -1162 2 -1389 -6 -167 -14 -308 -18 -314 -3 -6 -9 -222 -12 -481 l-6
-471 -45 -3 c-68 -5 -262 17 -286 33 -18 12 -22 26 -26 102 -10 166 -75 352
-162 463 -23 30 -54 80 -68 111 -59 131 -229 352 -418 544 -160 164 -161 164
-161 375 0 123 11 202 32 242 6 11 15 63 20 115 11 106 17 123 63 171 26 28
31 41 30 80 0 26 -15 88 -33 137 -54 148 -58 171 -37 210 10 19 65 73 122 121
108 90 179 166 208 222 12 23 16 53 14 103 l-2 71 39 32 c35 30 38 36 32 70
-8 51 -56 113 -189 241 -212 207 -437 385 -579 460 -41 21 -95 59 -121 83 -53
49 -118 167 -118 213 0 74 -163 326 -321 496 -441 476 -591 650 -628 727 -11
23 -60 90 -110 149 -50 59 -100 125 -111 147 -27 52 -63 188 -56 207 4 9 -1
24 -10 34 -21 24 -11 49 19 49 14 0 30 7 37 15 16 19 -19 54 -91 90 -66 34
-155 123 -168 170 -6 24 -5 65 6 137 17 121 12 238 -18 378 -35 159 -63 206
-213 356 -82 82 -148 138 -176 152 -25 11 -99 32 -165 46 -242 50 -271 56
-325 71 -38 11 -84 15 -150 12 -121 -4 -202 -37 -368 -147 -183 -121 -262
-215 -389 -465 -36 -71 -85 -164 -109 -205 -27 -48 -47 -98 -54 -137 -22 -128
-74 -237 -138 -294 -25 -22 -80 -56 -121 -75 -42 -20 -92 -43 -111 -52 -44
-21 -52 -57 -17 -73 20 -9 42 -5 121 20 86 28 166 40 166 26 0 -3 -11 -23 -25
-44 -28 -41 -37 -91 -19 -98 6 -2 36 18 65 45 30 27 65 55 78 62 23 12 27 10
40 -11 9 -13 48 -59 86 -102 207 -233 215 -251 174 -384 -13 -41 -13 -41 40
-122 62 -94 99 -130 207 -199 44 -28 94 -67 112 -86 43 -46 111 -60 251 -53
130 6 161 -3 161 -46 0 -18 -12 -70 -26 -117 -13 -47 -28 -123 -31 -170 -5
-71 -10 -88 -31 -108 -22 -23 -29 -24 -102 -19 -54 3 -113 17 -196 46 -129 45
-149 48 -178 26 -11 -8 -28 -15 -37 -15 -10 0 -57 42 -106 93 -48 52 -102 104
-118 116 -17 12 -82 37 -144 56 -121 36 -151 54 -151 92 0 31 25 79 46 87 9 3
59 11 112 17 120 13 182 38 182 72 0 13 -9 32 -20 42 -32 29 -59 78 -85 157
-27 79 -82 167 -120 192 -14 9 -37 16 -53 16 -33 0 -212 -55 -262 -80 -20 -10
-57 -21 -84 -25 -26 -4 -50 -14 -53 -22 -3 -7 8 -49 25 -91 16 -42 33 -87 37
-99 l6 -23 -151 0 c-171 0 -224 -12 -218 -51 3 -23 25 -36 189 -113 78 -37
106 -56 152 -106 37 -40 58 -72 63 -95 6 -32 2 -40 -35 -80 -22 -24 -41 -51
-41 -60 0 -47 -58 7 -146 136 -28 41 -63 80 -78 88 -24 13 -28 13 -44 -3 -15
-14 -17 -39 -17 -174 0 -180 2 -186 84 -270 44 -45 51 -58 51 -91 0 -71 -61
-99 -290 -131 -75 -10 -149 -24 -165 -30 l-30 -11 25 -20 c52 -41 296 -159
371 -179 43 -12 77 0 132 46 16 13 38 24 49 24 67 0 277 -234 278 -311 0 -51
-63 -64 -369 -79 -276 -13 -322 -20 -541 -82 -175 -49 -301 -70 -313 -51 -4 6
3 57 16 114 21 99 22 126 22 559 l0 455 59 109 58 108 -55 117 c-61 129 -72
159 -120 346 -40 152 -88 282 -196 530 -96 219 -104 241 -91 265 17 33 207
188 266 219 19 9 33 3 100 -41 172 -112 388 -189 458 -162 9 3 25 25 35 49 10
23 24 46 31 50 6 4 43 11 82 16 79 10 114 28 128 65 8 20 16 24 50 24 31 0 45
6 63 26 47 56 45 55 117 48 64 -6 69 -5 83 17 8 13 17 60 21 103 8 103 40 162
127 234 194 162 249 225 309 353 116 249 132 659 36 926 -74 207 -273 469
-440 581 -87 58 -272 138 -363 157 -83 18 -322 20 -430 3 -65 -9 -104 -24
-238 -92 -193 -97 -290 -161 -370 -241 -75 -75 -110 -140 -174 -329 -28 -82
-62 -164 -76 -182 -13 -17 -76 -66 -139 -108 -132 -88 -196 -154 -240 -246
-26 -55 -31 -77 -31 -140 0 -90 15 -122 90 -200 29 -30 55 -63 58 -72 15 -43
-96 -108 -158 -92 -15 4 -63 37 -107 75 -45 37 -93 71 -108 74 -46 10 -91 -17
-205 -125 -119 -111 -183 -159 -290 -213 -83 -42 -135 -90 -135 -124 0 -13 10
-41 22 -62 l22 -38 -24 -34 c-13 -19 -49 -65 -80 -104 -74 -91 -223 -298 -305
-424 -86 -130 -130 -230 -266 -594 -36 -96 -151 -530 -184 -692 -36 -178 -42
-227 -71 -521 -25 -262 -26 -295 -31 -1214 -2 -520 -1 -1025 4 -1122 9 -167
11 -179 36 -215 31 -45 42 -96 57 -263 17 -191 83 -699 120 -929 11 -68 33
-176 49 -240 16 -64 32 -138 36 -166 4 -27 17 -84 30 -125 31 -99 37 -142 26
-172 l-10 -25 -488 -8 c-272 -4 -498 -3 -511 2 l-22 9 0 1269 c0 1162 -20
3683 -35 4292 l-6 252 38 17 c53 23 118 30 128 13 5 -7 12 -76 16 -153 11
-220 48 -326 169 -482 97 -126 168 -237 181 -285 21 -78 8 -110 -74 -181 -119
-104 -212 -201 -231 -242 -29 -61 -19 -144 24 -204 139 -194 144 -210 84 -308
-82 -133 -95 -185 -49 -206 22 -10 29 -8 50 12 14 13 25 29 25 36 0 7 26 42
58 76 77 84 102 121 102 153 0 44 -56 148 -116 215 -91 102 -103 158 -46 215
15 15 72 62 127 105 55 42 115 93 132 113 107 122 46 332 -161 554 -96 104
-127 160 -146 264 -17 93 1 312 30 358 14 23 34 -1 79 -93 71 -143 194 -270
260 -268 66 2 165 81 159 126 -3 24 -20 25 -91 5 -45 -13 -51 -12 -85 7 -55
32 -109 108 -139 199 -24 72 -27 95 -27 235 -1 140 1 161 22 212 13 31 31 67
41 80 23 27 38 21 126 -52 70 -59 229 -144 252 -136 14 6 15 20 10 99 -9 121
-32 213 -65 261 -14 21 -75 74 -134 119 -91 67 -108 84 -108 107 0 66 22 298
31 328 6 17 16 32 23 32 8 0 30 -29 51 -65 21 -35 48 -74 60 -85 27 -25 137
-64 252 -90 71 -15 84 -16 94 -4 18 21 -3 82 -63 184 -113 192 -146 227 -274
296 -147 79 -149 105 -8 134 86 18 124 41 193 117 73 81 85 116 79 238 -5 104
-20 144 -64 166 -18 8 -46 27 -63 42 -18 15 -51 32 -74 38 -23 6 -54 17 -69
25 -34 18 -70 18 -191 -2 -69 -12 -101 -14 -109 -6 -7 7 0 48 27 139 21 70 49
174 63 231 14 59 30 102 37 102 6 0 53 -31 104 -69 106 -81 123 -86 301 -79
158 5 181 25 120 100 -72 87 -313 238 -380 238 -77 0 -120 43 -120 120 0 55
15 59 120 31 339 -92 350 -93 350 -46 0 29 -76 176 -133 257 -67 96 -115 125
-273 164 -163 40 -204 67 -204 138 0 25 -37 122 -81 208 -34 67 -35 78 -10 78
40 0 118 -108 151 -212 32 -101 44 -112 152 -137 51 -12 137 -41 190 -65 l96
-43 86 56 c47 31 107 70 133 86 26 17 64 53 85 80 48 63 71 65 111 9 19 -28
27 -48 23 -61 -4 -11 -36 -53 -71 -94 -124 -141 -171 -279 -162 -474 5 -113
18 -165 38 -165 16 0 198 179 264 260 30 36 64 84 77 107 l24 42 70 -70 c38
-39 87 -80 108 -91 22 -11 67 -41 101 -67 74 -57 183 -119 222 -127 20 -4 33
-1 42 10 21 25 -64 299 -115 367 -50 68 -169 162 -239 188 -83 31 -132 58
-139 77 -4 9 -5 18 -3 20 2 2 46 11 98 20 160 27 216 53 356 167 65 52 113
112 113 140 0 15 -9 19 -72 31 -32 7 -204 -15 -309 -38 -74 -17 -136 -39 -207
-75 -105 -53 -141 -61 -161 -37 -18 22 -76 146 -96 204 -13 41 -14 57 -6 65
17 17 211 21 300 7 68 -11 76 -10 100 7 14 11 49 61 76 112 28 50 77 123 110
161 l60 69 191 0 c227 1 271 8 352 56 34 20 66 34 73 30 6 -4 18 -23 26 -43
23 -55 5 -83 -80 -128 -54 -28 -98 -63 -177 -143 -58 -58 -127 -125 -155 -148
-61 -52 -53 -63 50 -63 154 0 260 45 381 161 45 44 87 79 92 79 5 0 23 -7 38
-15 16 -8 38 -15 50 -15 35 0 89 -43 86 -69 -4 -38 38 -198 59 -225 45 -57
295 -256 322 -256 22 0 38 56 39 137 1 126 -23 186 -104 257 -28 25 -77 59
-107 76 -69 37 -83 48 -105 82 -17 27 -17 28 7 52 13 13 47 36 76 50 70 36 85
68 78 166 -7 88 -29 159 -60 188 -39 37 -247 55 -367 32 -38 -7 -57 -7 -66 1
-14 11 -84 215 -84 243 0 40 38 27 113 -40 53 -48 116 -72 258 -99 139 -26
219 -18 219 21 0 21 -99 122 -185 190 -104 80 -158 108 -281 139 -165 43 -164
42 -154 135 5 43 6 45 36 44 17 -1 52 -17 80 -37 27 -19 68 -44 91 -56 46 -23
223 -71 264 -71 31 0 86 39 154 110 28 29 73 69 102 91 70 52 73 71 28 199
-19 57 -35 112 -35 122 0 10 -7 32 -15 48 -17 32 -183 176 -220 190 -13 5 -50
3 -96 -7 -81 -16 -263 -23 -275 -10 -5 4 -4 15 2 24 26 42 160 59 463 62 l184
1 108 -105z m-1771 76 c16 -4 25 -14 25 -26 0 -26 -62 -67 -89 -59 -41 12
-156 67 -156 75 0 16 171 24 220 10z m6717 0 c29 -4 56 -11 60 -15 7 -7 -76
-176 -87 -176 -13 0 -67 46 -105 90 -82 93 -81 90 -65 100 18 11 123 12 197 1z
m-7781 -12 c15 -25 -97 -126 -147 -131 -19 -2 -28 5 -42 34 -10 20 -19 49 -20
65 -2 26 1 28 43 34 78 10 159 9 166 -2z m652 -1 c-3 -7 -56 -27 -119 -46
-110 -32 -158 -59 -145 -80 19 -32 278 -134 383 -152 52 -8 79 -19 99 -37 l28
-26 -28 -23 c-15 -13 -40 -24 -55 -24 -30 0 -166 42 -333 103 l-97 36 -98 -31
c-125 -39 -171 -63 -183 -94 -10 -25 -10 -25 -40 -7 -16 9 -51 39 -77 65 -41
42 -45 49 -32 64 21 26 260 209 297 228 45 23 125 33 275 35 96 1 128 -2 125
-11z m8118 3 c288 -7 384 -17 328 -34 -10 -4 -62 -16 -114 -27 -136 -30 -191
-58 -235 -118 -19 -27 -44 -52 -55 -55 -27 -7 -72 18 -155 84 -39 31 -92 69
-120 84 -84 47 -96 56 -90 65 7 11 23 11 441 1z m-613 -197 c108 -60 180 -108
212 -144 19 -22 19 -22 0 -36 -32 -23 -57 -16 -145 41 -47 31 -109 64 -137 75
-100 37 -116 61 -67 99 15 12 29 21 31 21 3 0 50 -25 106 -56z m-8667 9 c43
-20 99 -41 124 -48 26 -6 46 -18 48 -27 2 -8 -29 -57 -68 -108 -38 -51 -70
-97 -70 -102 0 -6 -20 -35 -44 -66 -58 -75 -62 -86 -71 -161 -4 -35 -13 -78
-20 -95 -6 -17 -15 -40 -20 -51 l-7 -20 -8 20 c-10 23 -13 638 -4 673 9 32 47
29 140 -15z m2395 -23 c35 -19 15 -111 -32 -144 -31 -21 -60 -20 -139 5 -35
11 -107 23 -160 26 -52 3 -104 9 -115 14 -18 6 -16 9 16 23 20 8 103 29 185
45 220 45 219 45 245 31z m7321 -52 c10 -18 13 -105 12 -373 0 -380 -7 -505
-29 -505 -16 0 -39 68 -59 172 -19 100 -75 214 -171 347 -41 58 -75 111 -75
118 0 7 24 24 53 37 59 28 185 139 217 191 25 41 35 43 52 13z m-3475 -64 c6
-27 12 -83 12 -124 2 -135 51 -186 167 -176 83 7 211 50 290 98 36 22 72 37
79 34 8 -3 21 -16 31 -30 15 -24 15 -28 1 -50 -10 -14 -37 -31 -69 -41 -29
-10 -119 -51 -201 -92 -164 -82 -283 -126 -330 -121 -26 3 -33 10 -48 48 -9
25 -27 71 -40 104 -48 124 -85 146 -247 146 -66 0 -134 3 -151 6 l-31 7 0 121
0 121 262 -1 263 -2 12 -48z m-4635 -63 c56 -33 258 -117 363 -150 95 -31 105
-32 242 -30 82 2 148 -2 153 -7 13 -13 -7 -128 -31 -176 -20 -40 -43 -51 -95
-48 -53 4 -135 3 -185 -1 -51 -4 -50 -5 -211 117 -101 76 -166 115 -225 134
-100 33 -143 52 -143 66 0 12 86 114 96 114 1 0 18 -9 36 -19z m2316 -112 c2
-27 -3 -44 -22 -65 -23 -27 -29 -29 -96 -28 -89 2 -107 16 -65 50 54 45 130
84 155 82 21 -3 25 -9 28 -39z m5254 -77 c104 -84 218 -207 255 -277 44 -83
83 -205 83 -259 0 -36 -4 -46 -21 -51 -38 -12 -64 4 -104 67 -33 51 -48 66
-82 77 -37 13 -47 13 -101 -3 -49 -15 -66 -16 -93 -7 -57 20 -89 13 -173 -36
-80 -47 -83 -48 -166 -48 -73 0 -92 4 -137 27 -69 37 -88 64 -108 156 -9 42
-30 127 -46 188 -49 185 -42 204 71 204 55 0 61 -2 55 -17 -40 -100 -65 -180
-63 -197 5 -36 63 -56 158 -56 77 0 89 3 130 30 57 38 165 144 192 190 29 49
49 70 64 70 7 0 46 -26 86 -58z m-4979 -1 c50 -22 121 -47 156 -56 69 -17 111
-40 111 -59 0 -17 -63 -45 -114 -52 -38 -6 -48 -2 -116 45 -41 28 -96 58 -123
67 -48 16 -67 44 -53 79 9 23 39 18 139 -24z m-3208 4 c55 0 139 4 188 9 75 7
87 6 87 -7 0 -8 -29 -73 -64 -143 -35 -71 -87 -192 -115 -269 -29 -77 -61
-166 -73 -198 -11 -32 -29 -62 -40 -68 -11 -6 -83 -14 -161 -19 -191 -12 -186
-11 -374 -130 -62 -39 -94 -36 -113 10 -25 60 -161 162 -284 212 -48 20 -87
43 -98 59 -19 26 -20 28 -3 85 26 91 52 134 79 134 29 0 87 -58 132 -131 39
-64 39 -64 152 -90 45 -10 120 -36 166 -57 l84 -40 93 85 c52 47 110 93 129
103 77 40 99 89 99 220 1 93 -12 135 -53 180 -20 22 -36 47 -36 56 0 14 7 15
53 8 28 -5 97 -9 152 -9z m517 -168 c84 -69 166 -105 297 -129 127 -24 171
-35 190 -47 10 -6 15 -42 19 -125 2 -64 10 -123 16 -132 14 -19 121 -43 192
-44 28 0 73 7 100 15 27 8 60 15 73 15 43 0 79 -48 50 -66 -7 -4 -52 -11 -100
-15 -112 -11 -185 -29 -332 -87 -90 -34 -123 -43 -135 -35 -37 22 -79 92 -90
147 -6 31 -27 80 -46 110 -49 76 -66 81 -311 81 -110 0 -203 4 -206 9 -15 20
59 197 125 300 48 75 70 75 158 3z m7193 -517 c25 -27 15 -77 -37 -190 l-41
-91 94 -97 c52 -53 112 -121 133 -150 31 -43 51 -59 114 -88 43 -20 89 -48
104 -62 35 -32 76 -33 125 0 51 33 97 48 150 48 109 0 110 -60 4 -173 -34 -37
-76 -64 -163 -108 -147 -74 -166 -75 -237 -14 -65 55 -84 66 -181 96 -55 18
-86 35 -116 64 -38 36 -42 46 -49 105 -4 36 -16 86 -27 113 -21 48 -68 97 -93
97 -25 0 -38 40 -32 99 5 59 85 306 111 347 14 20 24 24 70 24 40 0 57 -5 71
-20z m-8712 -200 c28 -16 95 -43 147 -61 115 -38 254 -48 443 -30 137 13 195
26 281 65 74 33 82 33 101 -4 25 -49 20 -77 -17 -89 -47 -15 -163 -31 -233
-31 -126 0 -194 -43 -221 -139 -24 -89 -35 -110 -63 -130 -49 -34 -63 -34
-118 8 -29 21 -102 64 -163 95 -85 44 -116 65 -135 94 -51 79 -106 252 -80
252 3 0 29 -13 58 -30z m9728 -282 c14 -26 31 -439 21 -518 -6 -49 -10 -55
-32 -58 -34 -4 -110 51 -110 78 0 11 -19 41 -42 66 -41 45 -42 46 -31 87 25
93 96 278 124 321 31 50 52 58 70 24z m-9816 -51 c32 -55 33 -100 3 -121 -12
-9 -25 -12 -29 -8 -12 12 -16 172 -4 172 2 0 16 -20 30 -43z m246 -351 c20
-26 47 -68 59 -94 l23 -45 -30 -26 c-23 -20 -179 -133 -298 -216 -10 -6 -18
-6 -25 1 -13 13 -18 188 -7 221 5 12 30 36 57 52 28 17 50 36 50 42 0 18 103
120 119 117 8 -2 32 -25 52 -52z m145 -421 c7 -27 19 -68 27 -90 13 -33 13
-43 3 -60 -8 -11 -22 -21 -32 -23 -107 -16 -194 -74 -274 -183 -72 -99 -139
-179 -151 -179 -10 0 -11 103 -1 170 7 42 12 48 72 88 104 68 195 156 256 248
36 54 62 84 72 82 9 -2 20 -23 28 -53z m8608 -153 c13 -26 42 -70 65 -97 23
-27 41 -53 41 -58 0 -11 -53 1 -109 25 -24 10 -70 21 -102 25 -31 3 -63 9 -69
13 -23 14 -1 58 51 99 69 55 92 54 123 -7z m-8544 -418 c0 -31 -31 -149 -44
-166 -18 -24 -59 -38 -114 -38 -95 -1 -170 -46 -229 -138 -49 -76 -83 -112
-105 -112 -16 0 -18 9 -18 71 0 63 19 311 24 316 4 4 439 81 464 82 14 1 22
-5 22 -15z m-121 -621 c30 -127 37 -199 22 -217 -10 -12 -18 -12 -58 0 -75 23
-129 18 -218 -21 -108 -47 -122 -46 -130 8 -3 23 -5 91 -3 152 l3 109 105 13
c58 8 134 22 170 32 36 11 70 20 75 20 6 1 21 -43 34 -96z m-244 -873 l50 -48
40 15 c74 27 227 63 269 63 23 0 47 -5 54 -12 23 -23 6 -205 -26 -289 -13 -32
-20 -35 -142 -59 -138 -26 -160 -38 -205 -106 -49 -73 -107 -206 -109 -248 -1
-28 2 -31 31 -34 68 -7 236 70 328 151 80 69 83 48 20 -148 -53 -167 -69 -186
-195 -241 -81 -35 -153 -78 -212 -125 -14 -12 -31 -18 -37 -15 -8 5 -11 142
-10 464 0 508 7 668 30 683 25 16 62 -1 114 -51z m6630 -1141 c62 -23 76 -42
52 -67 -38 -37 -122 -7 -161 59 l-17 29 35 0 c19 0 60 -9 91 -21z m-72 -111
c22 -12 18 -42 -6 -46 -44 -9 -98 32 -81 59 6 11 56 3 87 -13z m-2295 -1331
c-10 -46 -16 -57 -29 -57 -5 0 -9 22 -9 50 0 36 5 52 17 59 25 14 32 -3 21
-52z m48 -260 c19 -17 25 -29 20 -42 -6 -17 -9 -16 -36 10 -50 48 -35 76 16
32z m677 -258 c52 -9 106 -45 139 -91 33 -47 16 -53 -140 -53 -134 0 -138 -1
-202 -33 -77 -38 -121 -41 -149 -10 -24 25 -48 94 -57 162 l-7 49 184 -7 c101
-4 206 -12 232 -17z m1265 -899 c135 -87 137 -106 35 -268 -30 -48 -104 -185
-164 -305 -60 -119 -129 -250 -154 -289 -50 -80 -54 -99 -26 -127 25 -25 187
-53 504 -86 l57 -6 -1 -112 c-1 -185 -26 -236 -109 -221 -19 3 -145 42 -280
85 -268 87 -500 154 -595 169 -33 6 -159 15 -281 20 -122 5 -252 14 -290 20
-208 31 -289 40 -489 55 -416 30 -455 35 -455 60 0 7 51 56 113 108 119 100
353 336 442 447 30 36 82 111 115 165 l60 99 -7 -147 c-4 -107 -3 -147 5 -147
28 0 121 55 126 74 11 46 37 262 40 331 2 40 7 78 10 84 13 20 67 11 195 -33
289 -99 429 -101 708 -5 175 60 274 88 313 88 26 1 58 -14 128 -59z"/>
</g>
</svg>
